name D:\school\WTK\thesis\model\3dpredictsim\Results\MidTarsalJoint\Fal_s1_bCst_PF_Natali2010_ls150_MT_k500_MTP_T5_ig23.mot
datacolumns 128
datarows 4
range 1.13114239 1.16507667
endheader
time	pelvis_tilt	pelvis_list	pelvis_rotation	pelvis_tx	pelvis_ty	pelvis_tz	hip_flexion_l	hip_adduction_l	hip_rotation_l	hip_flexion_r	hip_adduction_r	hip_rotation_r	knee_angle_l	knee_angle_r	ankle_angle_l	ankle_angle_r	subtalar_angle_l	subtalar_angle_r	mtj_angle_l	mtj_angle_r	mtp_angle_l	mtp_angle_r	lumbar_extension	lumbar_bending	lumbar_rotation	arm_flex_l	arm_add_l	arm_rot_l	arm_flex_r	arm_add_r	arm_rot_r	elbow_flex_l	elbow_flex_r	pro_sup_l	pro_sup_r	glut_med1_l/activation	glut_med2_l/activation	glut_med3_l/activation	glut_min1_l/activation	glut_min2_l/activation	glut_min3_l/activation	semimem_l/activation	semiten_l/activation	bifemlh_l/activation	bifemsh_l/activation	sar_l/activation	add_long_l/activation	add_brev_l/activation	add_mag1_l/activation	add_mag2_l/activation	add_mag3_l/activation	tfl_l/activation	pect_l/activation	grac_l/activation	glut_max1_l/activation	glut_max2_l/activation	glut_max3_l/activation	iliacus_l/activation	psoas_l/activation	quad_fem_l/activation	gem_l/activation	peri_l/activation	rect_fem_l/activation	vas_med_l/activation	vas_int_l/activation	vas_lat_l/activation	med_gas_l/activation	lat_gas_l/activation	soleus_l/activation	tib_post_l/activation	flex_dig_l/activation	flex_hal_l/activation	tib_ant_l/activation	per_brev_l/activation	per_long_l/activation	per_tert_l/activation	ext_dig_l/activation	ext_hal_l/activation	ercspn_l/activation	intobl_l/activation	extobl_l/activation	glut_med1_r/activation	glut_med2_r/activation	glut_med3_r/activation	glut_min1_r/activation	glut_min2_r/activation	glut_min3_r/activation	semimem_r/activation	semiten_r/activation	bifemlh_r/activation	bifemsh_r/activation	sar_r/activation	add_long_r/activation	add_brev_r/activation	add_mag1_r/activation	add_mag2_r/activation	add_mag3_r/activation	tfl_r/activation	pect_r/activation	grac_r/activation	glut_max1_r/activation	glut_max2_r/activation	glut_max3_r/activation	iliacus_r/activation	psoas_r/activation	quad_fem_r/activation	gem_r/activation	peri_r/activation	rect_fem_r/activation	vas_med_r/activation	vas_int_r/activation	vas_lat_r/activation	med_gas_r/activation	lat_gas_r/activation	soleus_r/activation	tib_post_r/activation	flex_dig_r/activation	flex_hal_r/activation	tib_ant_r/activation	per_brev_r/activation	per_long_r/activation	per_tert_r/activation	ext_dig_r/activation	ext_hal_r/activation	ercspn_r/activation	intobl_r/activation	extobl_r/activation	
          1.13114239	         -2.92977853	         -2.04182871	          5.36063303	          1.41392799	          0.91961863	         -0.00190593	        -16.95431560	         -1.05386532	          6.74447487	         29.24503364	          3.32179843	         -2.73292164	         -8.24128465	        -11.71470309	         -1.92026920	          5.28397163	          9.53003916	         -3.17499052	          2.55047492	         -0.09958482	         17.25497571	          0.58719887	         -2.11846827	          0.33579303	         -2.01049607	          5.07358165	        -13.45966847	         17.23149912	         -4.39731234	        -13.45341390	          8.33669640	         34.20794644	         15.29268415	         86.51662706	         86.51662706	          0.26864047	          0.09976962	          0.06886460	          0.29601757	          0.19600205	          0.10065628	          0.05000325	          0.05000068	          0.05000047	          0.05882396	          0.10663829	          0.10028060	          0.09658797	          0.05000535	          0.05000774	          0.05000254	          0.30677210	          0.09380155	          0.05000522	          0.05000539	          0.05000354	          0.05000313	          0.37212489	          0.60333053	          0.05000075	          0.05000179	          0.05000079	          0.21508545	          0.07566179	          0.05003180	          0.05014133	          0.26785034	          0.36569559	          0.30584418	          0.26595329	          0.25424308	          0.33598425	          0.05000009	          0.05941984	          0.12428939	          0.05000048	          0.05000013	          0.05000051	          0.05000010	          0.05000116	          0.06397347	          0.05942615	          0.05942616	          0.05000040	          0.05942637	          0.05942633	          0.05942151	          0.12290759	          0.05942871	          0.19930373	          0.05000224	          0.05000065	          0.15159769	          0.33052170	          0.10902035	          0.18703751	          0.10415295	          0.05000047	          0.07526829	          0.12505948	          0.05000124	          0.05000095	          0.13071001	          0.05942676	          0.05000649	          0.32508009	          0.27554444	          0.12766110	          0.05240615	          0.13532656	          0.13370565	          0.11968720	          0.06245251	          0.05933963	          0.05895228	          0.05000011	          0.05942861	          0.05000087	          0.52698844	          0.25691669	          0.16033785	          0.19211833	          0.46871083	          0.23293785	          0.05837398	          0.10858695	          0.09737922	
          1.14245382	         -2.92530787	         -2.13134891	          5.61995175	          1.43112325	          0.91874597	         -0.00169515	        -16.76491015	         -1.34893118	          6.54634318	         28.57617479	          3.69930249	         -2.49847804	        -10.25402459	        -11.98803121	         -2.61489004	          4.62119079	         10.52844127	         -3.55664618	          1.89418125	         -0.14640063	         18.79657658	          0.58405136	         -1.91523957	          0.54776902	         -2.08027973	          4.72324366	        -13.47276152	         17.46850067	         -5.29735577	        -13.45621787	          8.05885207	         35.42582127	         14.96179659	         86.51662706	         86.51662706	          0.22602884	          0.08394425	          0.05794172	          0.24906351	          0.16491237	          0.08469031	          0.05000784	          0.05000208	          0.05000352	          0.05000028	          0.08972379	          0.19482104	          0.09145474	          0.07061760	          0.05942993	          0.05942795	          0.25811229	          0.09815777	          0.05004157	          0.05001958	          0.05003308	          0.05942591	          0.31309858	          0.55627089	          0.05942643	          0.05942762	          0.05942398	          0.18096871	          0.10927946	          0.15552012	          0.14093167	          0.22536391	          0.30768899	          0.25733118	          0.22376802	          0.21391575	          0.28269110	          0.05000005	          0.05000037	          0.13595300	          0.05000026	          0.05000009	          0.05000036	          0.06360226	          0.07062732	          0.05942672	          0.05000004	          0.05000015	          0.11591615	          0.05000022	          0.05000022	          0.05000021	          0.10341241	          0.05000240	          0.16769030	          0.05000039	          0.05943396	          0.12755156	          0.29434874	          0.35498644	          0.22292068	          0.10973936	          0.05000130	          0.07749527	          0.14597862	          0.06906522	          0.07856012	          0.12568377	          0.05000079	          0.05942756	          0.52614207	          0.23183768	          0.10741165	          0.05944329	          0.16649915	          0.16682166	          0.14369515	          0.06288760	          0.06599019	          0.05000081	          0.05870502	          0.05000325	          0.05854176	          0.50641279	          0.30758376	          0.20218586	          0.16164486	          0.43682543	          0.19598946	          0.05000002	          0.09136290	          0.08193294	
          1.15376524	         -2.91628761	         -2.22608875	          5.85071293	          1.44860283	          0.91786315	         -0.00150539	        -16.50011325	         -1.64261844	          6.33450687	         27.75599051	          3.97398056	         -2.23154188	        -12.38239117	        -12.41306063	         -3.47863743	          4.12136252	         11.47182546	         -3.95952991	          1.16735006	         -0.21375041	         20.30505820	          0.55864181	         -1.69220256	          0.77075307	         -2.13855809	          4.29141501	        -13.48489349	         17.61778020	         -6.22090423	        -13.46828707	          7.84734289	         36.64509148	         14.67429944	         86.51662706	         86.51662706	          0.32369035	          0.07062913	          0.05000035	          0.33214494	          0.13875442	          0.07125690	          0.05000464	          0.05000058	          0.05000042	          0.05000213	          0.07549894	          0.16391871	          0.07694850	          0.05941649	          0.05000402	          0.05000190	          0.27086285	          0.08259091	          0.05000274	          0.05000457	          0.05000218	          0.05000143	          0.26343513	          0.51769667	          0.05000058	          0.05000235	          0.05000062	          0.15226351	          0.09194572	          0.13085169	          0.11857723	          0.18961668	          0.25888337	          0.21651329	          0.18827402	          0.17998474	          0.23785087	          0.05290402	          0.08155535	          0.16238035	          0.05000102	          0.09394536	          0.05000128	          0.06100908	          0.05942442	          0.05000053	          0.25754666	          0.26312416	          0.33007648	          0.40939996	          0.25290196	          0.22504546	          0.09545777	          0.05942929	          0.14251001	          0.07642395	          0.05000950	          0.10731943	          0.24765931	          0.29867876	          0.18756157	          0.12056355	          0.05000110	          0.06520586	          0.12282542	          0.15138579	          0.06609986	          0.10574860	          0.05000496	          0.05000166	          0.44268550	          0.19506392	          0.24349090	          0.05001447	          0.14008937	          0.14036076	          0.12090250	          0.05291253	          0.05552310	          0.05140519	          0.05000030	          0.05000104	          0.05000132	          0.57602084	          0.32800811	          0.17011561	          0.39829600	          0.51032804	          0.20842279	          0.06686428	          0.11140183	          0.06893677	
          1.16507667	         -2.90476194	         -2.31399126	          6.04765663	          1.46613912	          0.91699755	         -0.00129051	        -16.12510973	         -1.92282457	          6.13303558	         26.87618545	          4.22278223	         -1.96239582	        -14.66711185	        -12.79448638	         -4.47320956	          3.75847980	         12.36945224	         -4.36985363	          0.38521048	         -0.20595939	         21.63800366	          0.58002906	         -1.47307936	          0.99140986	         -2.18611200	          3.81890158	        -13.50439401	         17.70794892	         -7.11711993	        -13.48117253	          7.70686070	         37.84124627	         14.39950712	         86.51662706	         86.51662706	          0.27234690	          0.05942608	          0.05000033	          0.27946046	          0.11674540	          0.05995428	          0.05000342	          0.05000036	          0.05000039	          0.05000022	          0.06352377	          0.15558841	          0.17711222	          0.05000903	          0.05004454	          0.08485999	          0.22789996	          0.06949442	          0.05000148	          0.05000766	          0.05000579	          0.05000526	          0.22164911	          0.45774162	          0.05000062	          0.05000184	          0.05000043	          0.12811150	          0.11483918	          0.11010302	          0.09977324	          0.15953967	          0.21781930	          0.18216994	          0.15841007	          0.15143587	          0.20012320	          0.12789398	          0.14557073	          0.14011504	          0.05000551	          0.17720276	          0.06377887	          0.08693018	          0.05000006	          0.05000011	          0.36001978	          0.36469715	          0.38462086	          0.34446215	          0.21808119	          0.24707023	          0.08879211	          0.09774198	          0.12108311	          0.06430267	          0.05000148	          0.09029651	          0.20837575	          0.25130331	          0.19337520	          0.16212971	          0.05000081	          0.05486511	          0.10334892	          0.23434641	          0.16961386	          0.15394465	          0.05000033	          0.05000034	          0.37246681	          0.16412308	          0.20487162	          0.05000015	          0.15682752	          0.17162978	          0.12327395	          0.05000009	          0.05000017	          0.05000003	          0.05000007	          0.05000034	          0.05000034	          0.63906233	          0.27598992	          0.14442751	          0.57156026	          0.54455125	          0.31726866	          0.08624742	          0.09373129	          0.05800206	
